<svg width="2000" height="1400" viewBox="0 0 2000 1400" fill="none" xmlns="http://www.w3.org/2000/svg">
<path d="M1737.94 1256.59C1658.05 1239.9 1577.26 1218.24 1500.5 1195.15C1464.59 1184.15 1429.13 1171.36 1396.37 1155.38C1356.87 1135.85 1321.86 1109.92 1297.62 1078.67C1228.95 989.885 1230.74 891.867 1263.06 793.849C1280.12 741.999 1298.52 688.729 1334.88 642.916C1382.45 583.608 1453.82 500.151 1543.14 471.74C1632.91 443.329 1689.02 468.544 1697.55 518.973C1706.53 571.534 1632.91 628 1589.37 656.766C1547.63 684.112 1424.65 755.14 1420.16 813.027C1413.87 896.484 1495.12 899.68 1531.92 899.68C1599.7 899.68 1671.06 858.484 1727.17 826.522C1799.88 784.971 1884.72 712.878 1925.56 645.757C1991.54 537.085 1991.55 436.581 1956.09 337.143C1905.82 197.219 1704.28 175.2 1569.17 225.985C1407.14 286.714 1270.24 382.245 1164.31 504.413C1096.54 582.188 1040.43 645.757 949.761 704.71C884.229 747.327 768.427 800.952 698.855 724.243C653.97 674.523 670.577 586.449 695.264 536.375C732.07 461.086 792.217 412.432 870.317 368.04C980.734 305.891 1134.24 274.994 1195.28 181.593C1270.24 66.8835 1156.68 -6.62998 1019.33 0.47277C700.649 17.5194 452.436 240.191 401.267 483.46C379.722 585.029 394.533 695.121 453.333 787.457C509.888 876.241 624.793 945.848 604.146 1054.17C571.38 1222.15 339.326 1248.78 145.871 1295.3C107.719 1304.54 13.0103 1323 1.78904 1354.97C-15.7161 1403.27 100.089 1400.42 137.792 1399.71C457.823 1393.68 969.511 1388.7 1289.54 1387.64C1382.9 1387.64 1475.81 1387.64 1569.17 1387.64C1684.53 1388.35 1799.89 1388.7 1915.24 1387.64C2016.68 1386.93 2043.16 1341.83 1904.47 1300.28C1849.71 1283.94 1795.4 1268.31 1738.84 1256.24L1737.94 1256.59Z" fill="#F2E8FF"/>
</svg>
