<svg width="1700" height="1420" viewBox="0 0 1700 1420" fill="none" xmlns="http://www.w3.org/2000/svg">
<path d="M1611.29 1512.32C1515.24 1931.86 1054.73 1878.78 621.977 1868.07C422.408 1863.36 -180.034 1807.71 52.6186 1532.01C137.462 1431.84 377.586 1372.76 560.08 1321.38C697.217 1283.28 615.575 1272.58 560.08 1269.58C316.755 1256.74 -62.6405 1235.76 49.4171 982.755C124.656 812.37 439.485 709.198 673.738 668.1C787.93 647.979 722.295 632.567 685.476 622.292C553.142 585.904 416.005 558.077 382.388 444.63C344.502 318.339 434.683 188.624 528.065 132.542C756.982 -4.87886 1287.92 -60.5318 1526.98 88.8762C1715.87 207.033 1700.93 459.185 1703.6 629.999C1707.87 924.962 1677.99 1222.06 1611.82 1513.17L1611.29 1512.32Z" fill="#F2E8FF"/>
</svg>
