<svg width="1400" height="1400" viewBox="0 0 1400 1400" fill="none" xmlns="http://www.w3.org/2000/svg">
<path d="M1218.01 809.704C1339.28 757.768 1404.26 628.542 1357.79 511.993C1330.97 444.927 1243.32 419.163 1180.23 426.524C1148.87 430.205 1118.27 439.202 1090.31 456.377C1009.84 505.859 942.598 639.992 874.218 661.666C807.349 682.931 860.24 547.98 871.195 521.808C875.351 511.584 879.507 501.361 884.418 491.546C935.042 386.857 973.955 257.222 953.554 141.082C937.687 52.3419 880.262 -7.77263 791.481 0.815167C703.078 8.99402 650.942 120.635 638.853 200.379C621.096 317.337 628.653 437.975 623.364 555.75C621.853 589.283 628.275 673.526 567.072 658.804C515.693 646.126 501.337 565.974 486.981 520.172C445.801 384.812 355.131 238.002 206.281 250.27C167.368 253.542 122.033 280.123 98.9876 314.883C70.2754 357.822 67.2531 412.62 75.9423 462.511C94.8319 572.108 155.278 662.075 243.304 715.238C277.305 735.685 312.441 753.269 349.464 767.174C408.4 789.665 510.403 815.429 526.648 895.172C530.426 912.757 520.604 933.204 507.759 944.246C469.224 978.188 414.822 974.916 369.487 970.009C316.596 964.284 264.46 959.376 210.814 966.328C177.19 970.827 144.323 980.233 113.722 996.59C91.8096 1008.45 70.6533 1024.81 53.6527 1044.03C38.541 1060.79 23.8067 1082.47 14.3619 1103.73C-2.63874 1142.17 -5.66114 1210.06 11.3395 1248.5C49.4966 1334.79 143.567 1364.64 224.414 1377.32C339.263 1394.9 456.757 1394.9 573.117 1397.35C670.588 1398.99 768.058 1401.03 865.906 1399.4C939.954 1397.76 1014.38 1393.67 1087.67 1378.13C1119.78 1371.18 1151.52 1362.59 1182.5 1351.14C1242.94 1328.65 1304.9 1296.35 1350.24 1244.41C1392.55 1195.75 1407.28 1125.82 1396.7 1062.02C1384.99 992.092 1343.44 949.971 1275.81 941.383C1184.39 929.933 1112.6 943.428 1022.69 966.328C990.2 974.507 905.574 992.91 894.618 956.923C880.64 910.303 978.489 877.588 1011.73 868.182C1063.87 853.052 1150.76 840.374 1218.76 811.748L1218.01 809.704Z" fill="#F2E8FF"/>
</svg>
