<svg width="1400" height="1400" viewBox="0 0 1400 1400" fill="none" xmlns="http://www.w3.org/2000/svg">
<path d="M1118.36 702.936C1180.81 639.78 1254.47 585.982 1302.33 510.462C1409.93 342.046 1305.38 124.843 1138.39 58.0116C902.144 -36.8892 584.101 -10.4908 335.3 101.786C133.002 193.011 -47.2349 439.619 11.1466 648.468C77.335 885.052 399.113 885.721 610.237 864.335C709.35 854.31 872.614 828.246 926.244 923.815C967.314 996.661 930.316 1099.25 884.494 1170.42C819.663 1271.34 836.974 1389.96 970.369 1398.65C1126.51 1409.01 1318.96 1361.23 1385.49 1200.5C1414.68 1129.99 1400.76 1051.8 1335.25 1013.37C1277.55 979.619 1204.91 985.634 1139.74 971.599C1021.96 946.203 1003.63 840.61 1076.61 749.385C1089.51 733.011 1103.76 717.64 1118.36 702.603V702.936Z" fill="#F2E8FF"/>
</svg>
