<svg width="36" height="36" viewBox="0 0 36 36" fill="none" xmlns="http://www.w3.org/2000/svg">
<rect x="0.75" y="0.75" width="34.5" height="34.5" rx="11.25" fill="white"/>
<rect x="0.75" y="0.75" width="34.5" height="34.5" rx="11.25" stroke="#65558F" stroke-width="1.5"/>
<rect x="0.75" y="0.75" width="34.5" height="34.5" rx="11.25" stroke="white" stroke-opacity="0.3" stroke-width="1.5"/>
<path d="M12.1667 23.8333H13.3542L21.5 15.6875L20.3125 14.5L12.1667 22.6458V23.8333ZM10.5 25.5V21.9583L21.5 10.9792C21.6667 10.8264 21.8507 10.7083 22.0521 10.625C22.2535 10.5417 22.4653 10.5 22.6875 10.5C22.9097 10.5 23.125 10.5417 23.3333 10.625C23.5417 10.7083 23.7222 10.8333 23.875 11L25.0208 12.1667C25.1875 12.3194 25.309 12.5 25.3854 12.7083C25.4618 12.9167 25.5 13.125 25.5 13.3333C25.5 13.5556 25.4618 13.7674 25.3854 13.9687C25.309 14.1701 25.1875 14.3542 25.0208 14.5208L14.0417 25.5H10.5ZM20.8958 15.1042L20.3125 14.5L21.5 15.6875L20.8958 15.1042Z" fill="#65558F"/>
<path d="M12.1667 23.8333H13.3542L21.5 15.6875L20.3125 14.5L12.1667 22.6458V23.8333ZM10.5 25.5V21.9583L21.5 10.9792C21.6667 10.8264 21.8507 10.7083 22.0521 10.625C22.2535 10.5417 22.4653 10.5 22.6875 10.5C22.9097 10.5 23.125 10.5417 23.3333 10.625C23.5417 10.7083 23.7222 10.8333 23.875 11L25.0208 12.1667C25.1875 12.3194 25.309 12.5 25.3854 12.7083C25.4618 12.9167 25.5 13.125 25.5 13.3333C25.5 13.5556 25.4618 13.7674 25.3854 13.9687C25.309 14.1701 25.1875 14.3542 25.0208 14.5208L14.0417 25.5H10.5ZM20.8958 15.1042L20.3125 14.5L21.5 15.6875L20.8958 15.1042Z" fill="white" fill-opacity="0.3"/>
</svg>
