<svg width="36" height="36" viewBox="0 0 36 36" fill="none" xmlns="http://www.w3.org/2000/svg">
<rect x="0.75" y="0.75" width="34.5" height="34.5" rx="11.25" fill="white"/>
<rect x="0.75" y="0.75" width="34.5" height="34.5" rx="11.25" stroke="#65558F" stroke-width="1.5"/>
<rect x="0.75" y="0.75" width="34.5" height="34.5" rx="11.25" stroke="white" stroke-opacity="0.3" stroke-width="1.5"/>
<path d="M13.8333 25.5C13.375 25.5 12.9826 25.3368 12.6562 25.0104C12.3298 24.684 12.1666 24.2917 12.1666 23.8333V13H11.3333V11.3333H15.5V10.5H20.5V11.3333H24.6666V13H23.8333V23.8333C23.8333 24.2917 23.6701 24.684 23.3437 25.0104C23.0173 25.3368 22.625 25.5 22.1666 25.5H13.8333ZM22.1666 13H13.8333V23.8333H22.1666V13ZM15.5 22.1667H17.1666V14.6667H15.5V22.1667ZM18.8333 22.1667H20.5V14.6667H18.8333V22.1667Z" fill="#65558F"/>
<path d="M13.8333 25.5C13.375 25.5 12.9826 25.3368 12.6562 25.0104C12.3298 24.684 12.1666 24.2917 12.1666 23.8333V13H11.3333V11.3333H15.5V10.5H20.5V11.3333H24.6666V13H23.8333V23.8333C23.8333 24.2917 23.6701 24.684 23.3437 25.0104C23.0173 25.3368 22.625 25.5 22.1666 25.5H13.8333ZM22.1666 13H13.8333V23.8333H22.1666V13ZM15.5 22.1667H17.1666V14.6667H15.5V22.1667ZM18.8333 22.1667H20.5V14.6667H18.8333V22.1667Z" fill="white" fill-opacity="0.3"/>
</svg>
